<?xml version="1.0" encoding="UTF-8" standalone="no"?>
<!DOCTYPE svg PUBLIC "-//W3C//DTD SVG 1.1//EN" "http://www.w3.org/Graphics/SVG/1.1/DTD/svg11.dtd">
<svg width="100%" height="100%" viewBox="0 0 1575 387" version="1.1" xmlns="http://www.w3.org/2000/svg" xmlns:xlink="http://www.w3.org/1999/xlink" xml:space="preserve" xmlns:serif="http://www.serif.com/" style="fill-rule:evenodd;clip-rule:evenodd;">
    <g transform="matrix(1,0,0,1,-26.396,-1670.44)">
        <g transform="matrix(4.16667,0,0,4.16667,-230.955,771.98)">
            <path d="M82.599,215.068C81.547,215.516 80.776,216.75 80.229,217.703C80.214,217.745 80.224,217.776 80.266,217.802C80.302,217.823 80.339,217.818 80.365,217.786C80.724,217.255 81.125,216.76 81.573,216.302C81.974,215.953 82.344,215.573 82.688,215.161C82.729,215.099 82.651,215.042 82.599,215.068Z" style="fill-rule:nonzero;"/>
        </g>
        <g transform="matrix(4.16667,0,0,4.16667,-230.955,771.98)">
            <path d="M67.193,217.75C66.901,217.818 66.568,217.594 66.333,217.479L65.604,217.151C65.458,217.089 65.333,217.276 65.469,217.365L66.208,217.818C66.323,217.885 66.438,217.958 66.547,218.021C66.781,218.156 66.786,218.099 66.917,218.406C67.052,218.714 67.583,218.661 67.714,218.359C67.781,218.193 67.76,218.036 67.641,217.901C67.521,217.76 67.375,217.714 67.193,217.75Z" style="fill-rule:nonzero;"/>
        </g>
        <g transform="matrix(4.16667,0,0,4.16667,-230.955,771.98)">
            <path d="M68.479,217.891C68.406,217.729 68.286,217.698 68.13,217.615L67.557,217.318C67.391,217.234 67.24,217.484 67.401,217.573L68.031,217.891C68.188,217.974 68.26,218.036 68.438,217.995C68.495,217.979 68.51,217.943 68.479,217.891Z" style="fill-rule:nonzero;"/>
        </g>
        <g transform="matrix(4.16667,0,0,4.16667,-230.955,771.98)">
            <path d="M69.552,217.859C69.182,217.635 68.792,217.448 68.385,217.297C68.286,217.25 68.193,217.401 68.292,217.443C68.677,217.661 69.078,217.844 69.495,217.99C69.531,217.995 69.557,217.979 69.573,217.948C69.589,217.911 69.583,217.885 69.552,217.859Z" style="fill-rule:nonzero;"/>
        </g>
        <g transform="matrix(4.16667,0,0,4.16667,-230.955,771.98)">
            <path d="M70.813,217.396C70.688,217.339 70.557,217.339 70.432,217.396C70.271,217.464 70.198,217.589 70.01,217.495C69.953,217.495 69.896,217.557 69.953,217.583C70.203,217.703 70.089,218.104 70.365,218.266C70.484,218.339 70.609,218.359 70.75,218.323C70.885,218.281 70.984,218.203 71.052,218.073C71.115,217.948 71.125,217.823 71.078,217.688C71.031,217.552 70.943,217.458 70.813,217.401L70.813,217.396Z" style="fill-rule:nonzero;"/>
        </g>
        <g transform="matrix(4.16667,0,0,4.16667,-230.955,771.98)">
            <path d="M71.573,217.203C71.573,217.203 71.516,217.203 71.573,217.234L71.646,217.307C71.646,217.307 71.698,217.307 71.646,217.307L71.573,217.203Z" style="fill-rule:nonzero;"/>
        </g>
        <g transform="matrix(4.31586,0,0,4.31586,993.205,1609.47)">
            <path d="M10.608,70.665L10.608,23.711L0.964,23.711L0.964,18.406L26.065,18.406L26.065,23.711L16.426,23.711L16.426,70.665L10.608,70.665ZM35.911,47.153L35.911,70.665L30.093,70.665L30.093,18.406L35.911,18.406L35.911,41.918L48.758,41.918L48.758,18.406L54.576,18.406L54.576,70.665L48.758,70.665L48.758,47.153L35.911,47.153ZM79.149,41.556L79.149,46.77L66.372,46.77L66.372,65.36L82.05,65.36L82.05,70.665L60.559,70.665L60.559,18.406L82.05,18.406L82.05,23.711L66.372,23.711L66.372,41.556L79.149,41.556ZM98.412,17.873C102.4,17.873 105.331,19.06 107.217,21.428C109.112,23.786 110.058,26.959 110.058,30.946L110.058,32.369L104.537,32.369L104.537,30.655C104.537,28.261 104.064,26.416 103.114,25.129C102.168,23.831 100.65,23.178 98.558,23.178C96.466,23.178 94.948,23.831 94.002,25.129C93.052,26.416 92.579,28.231 92.579,30.564C92.579,32.505 93.017,34.205 93.892,35.648C94.767,37.096 95.848,38.424 97.135,39.64C98.437,40.857 99.845,42.054 101.364,43.231C102.882,44.397 104.285,45.679 105.578,47.077C106.875,48.465 107.956,50.044 108.821,51.819C109.696,53.579 110.133,55.681 110.133,58.124C110.133,62.112 109.173,65.29 107.252,67.658C105.346,70.016 102.375,71.193 98.337,71.193C94.304,71.193 91.337,70.016 89.442,67.658C87.561,65.29 86.616,62.112 86.616,58.124L86.616,55.138L92.067,55.138L92.067,58.416C92.067,60.809 92.564,62.66 93.565,63.957C94.561,65.244 96.104,65.893 98.191,65.893C100.283,65.893 101.826,65.244 102.822,63.957C103.818,62.66 104.315,60.809 104.315,58.416C104.315,56.485 103.878,54.806 103.003,53.388C102.128,51.965 101.042,50.647 99.745,49.43C98.453,48.204 97.065,47.007 95.566,45.84C94.073,44.674 92.675,43.391 91.373,41.994C90.085,40.596 89.004,39.017 88.129,37.252C87.27,35.492 86.837,33.39 86.837,30.946C86.837,26.909 87.777,23.726 89.663,21.393C91.559,19.05 94.475,17.873 98.412,17.873ZM133.806,41.556L133.806,46.77L121.03,46.77L121.03,65.36L136.708,65.36L136.708,70.665L115.212,70.665L115.212,18.406L136.708,18.406L136.708,23.711L121.03,23.711L121.03,41.556L133.806,41.556Z" style="fill:none;fill-rule:nonzero;stroke:rgb(218,171,181);stroke-width:5.6px;"/>
        </g>
        <g transform="matrix(4.16667,0,0,4.16667,993.205,1914.46)">
            <g>
                <path d="M10.979,0L10.979,-48.646L1,-48.646L1,-54.125L26.979,-54.125L26.979,-48.646L17.021,-48.646L17.021,0L10.979,0Z" style="fill-rule:nonzero;"/>
            </g>
        </g>
        <g transform="matrix(4.16667,0,0,4.16667,1110.18,1914.46)">
            <g>
                <path d="M9.125,-24.354L9.125,0L3.083,0L3.083,-54.125L9.125,-54.125L9.125,-29.771L22.417,-29.771L22.417,-54.125L28.458,-54.125L28.458,0L22.417,0L22.417,-24.354L9.125,-24.354Z" style="fill-rule:nonzero;"/>
            </g>
        </g>
        <g transform="matrix(4.16667,0,0,4.16667,1241.66,1914.46)">
            <g>
                <path d="M22.354,-30.167L22.354,-24.75L9.125,-24.75L9.125,-5.5L25.375,-5.5L25.375,0L3.083,0L3.083,-54.125L25.375,-54.125L25.375,-48.646L9.125,-48.646L9.125,-30.167L22.354,-30.167Z" style="fill-rule:nonzero;"/>
            </g>
        </g>
        <g transform="matrix(4.16667,0,0,4.16667,1357.67,1914.46)">
            <g>
                <path d="M14.458,-54.667C18.583,-54.667 21.625,-53.443 23.583,-51C25.542,-48.552 26.521,-45.271 26.521,-41.146L26.521,-39.667L20.813,-39.667L20.813,-41.458C20.813,-43.927 20.318,-45.833 19.333,-47.167C18.344,-48.51 16.776,-49.187 14.625,-49.187C12.458,-49.187 10.88,-48.51 9.896,-47.167C8.922,-45.833 8.438,-43.948 8.438,-41.521C8.438,-39.521 8.885,-37.771 9.792,-36.271C10.693,-34.771 11.813,-33.385 13.146,-32.125C14.49,-30.859 15.948,-29.625 17.521,-28.417C19.089,-27.208 20.542,-25.88 21.875,-24.437C23.219,-22.99 24.344,-21.354 25.25,-19.521C26.151,-17.698 26.604,-15.526 26.604,-13C26.604,-8.875 25.609,-5.583 23.625,-3.125C21.635,-0.677 18.552,0.542 14.375,0.542C10.208,0.542 7.146,-0.677 5.188,-3.125C3.229,-5.583 2.25,-8.875 2.25,-13L2.25,-16.083L7.896,-16.083L7.896,-12.687C7.896,-10.214 8.406,-8.302 9.438,-6.958C10.464,-5.625 12.063,-4.958 14.229,-4.958C16.396,-4.958 17.99,-5.625 19.021,-6.958C20.047,-8.302 20.563,-10.214 20.563,-12.687C20.563,-14.698 20.109,-16.437 19.208,-17.896C18.302,-19.365 17.177,-20.734 15.833,-22C14.5,-23.26 13.063,-24.5 11.521,-25.708C9.979,-26.917 8.531,-28.24 7.188,-29.687C5.854,-31.13 4.734,-32.771 3.833,-34.604C2.927,-36.437 2.479,-38.615 2.479,-41.146C2.479,-45.312 3.458,-48.604 5.417,-51.021C7.375,-53.448 10.385,-54.667 14.458,-54.667Z" style="fill-rule:nonzero;"/>
            </g>
        </g>
        <g transform="matrix(4.16667,0,0,4.16667,1477.55,1914.46)">
            <g>
                <path d="M22.354,-30.167L22.354,-24.75L9.125,-24.75L9.125,-5.5L25.375,-5.5L25.375,0L3.083,0L3.083,-54.125L25.375,-54.125L25.375,-48.646L9.125,-48.646L9.125,-30.167L22.354,-30.167Z" style="fill-rule:nonzero;"/>
            </g>
        </g>
        <g transform="matrix(4.16667,0,0,4.16667,218.447,2049.01)">
            <g>
                <path d="M2.667,-7.146L2.667,0L0.917,0L0.917,-15.875L2.667,-15.875L2.667,-8.729L6.583,-8.729L6.583,-15.875L8.333,-15.875L8.333,0L6.583,0L6.583,-7.146L2.667,-7.146Z" style="fill-rule:nonzero;"/>
            </g>
        </g>
        <g transform="matrix(4.16667,0,0,4.16667,256.963,2049.01)">
            <g>
                <path d="M2.688,-3.187L2.083,0L0.458,0L3.5,-15.875L6.042,-15.875L9.083,0L7.313,0L6.708,-3.187L2.688,-3.187ZM2.917,-4.708L6.458,-4.708L4.667,-13.875L2.917,-4.708Z" style="fill-rule:nonzero;"/>
            </g>
        </g>
        <g transform="matrix(4.16667,0,0,4.16667,296.8,2049.01)">
            <g>
                <path d="M2.479,0L0.875,0L0.875,-15.875L3.125,-15.875L6.792,-4.396L6.792,-15.875L8.354,-15.875L8.354,0L6.521,0L2.479,-12.833L2.479,0Z" style="fill-rule:nonzero;"/>
            </g>
        </g>
        <g transform="matrix(4.16667,0,0,4.16667,335.41,2049.01)">
            <g>
                <path d="M4.625,-15.875C5.859,-15.875 6.771,-15.521 7.354,-14.812C7.938,-14.104 8.229,-13.135 8.229,-11.917L8.229,-3.917C8.229,-2.693 7.938,-1.734 7.354,-1.042C6.771,-0.344 5.859,0 4.625,0L0.917,0L0.917,-15.875L4.625,-15.875ZM4.604,-1.604C5.24,-1.604 5.714,-1.797 6.021,-2.187C6.323,-2.573 6.479,-3.13 6.479,-3.854L6.479,-12.021C6.479,-12.74 6.323,-13.292 6.021,-13.667C5.714,-14.052 5.234,-14.25 4.583,-14.25L2.667,-14.25L2.667,-1.604L4.604,-1.604Z" style="fill-rule:nonzero;"/>
            </g>
        </g>
        <g transform="matrix(4.16667,0,0,4.16667,372.793,2049.01)">
            <g>
                <path d="M6.75,-0.021L5.063,-0.021L2.417,-12.646L2.417,0L0.875,0L0.875,-15.875L3.354,-15.875L5.958,-3.187L8.479,-15.875L10.958,-15.875L10.958,0L9.271,0L9.271,-12.771L6.75,-0.021Z" style="fill-rule:nonzero;"/>
            </g>
        </g>
        <g transform="matrix(4.16667,0,0,4.16667,422.164,2049.01)">
            <g>
                <path d="M2.688,-3.187L2.083,0L0.458,0L3.5,-15.875L6.042,-15.875L9.083,0L7.313,0L6.708,-3.187L2.688,-3.187ZM2.917,-4.708L6.458,-4.708L4.667,-13.875L2.917,-4.708Z" style="fill-rule:nonzero;"/>
            </g>
        </g>
        <g transform="matrix(4.16667,0,0,4.16667,462.001,2049.01)">
            <g>
                <path d="M4.625,-15.875C5.859,-15.875 6.771,-15.521 7.354,-14.812C7.938,-14.104 8.229,-13.135 8.229,-11.917L8.229,-3.917C8.229,-2.693 7.938,-1.734 7.354,-1.042C6.771,-0.344 5.859,0 4.625,0L0.917,0L0.917,-15.875L4.625,-15.875ZM4.604,-1.604C5.24,-1.604 5.714,-1.797 6.021,-2.187C6.323,-2.573 6.479,-3.13 6.479,-3.854L6.479,-12.021C6.479,-12.74 6.323,-13.292 6.021,-13.667C5.714,-14.052 5.234,-14.25 4.583,-14.25L2.667,-14.25L2.667,-1.604L4.604,-1.604Z" style="fill-rule:nonzero;"/>
            </g>
        </g>
        <g transform="matrix(4.16667,0,0,4.16667,499.384,2049.01)">
            <g>
                <path d="M6.542,-8.833L6.542,-7.25L2.667,-7.25L2.667,-1.604L7.438,-1.604L7.438,0L0.917,0L0.917,-15.875L7.438,-15.875L7.438,-14.25L2.667,-14.25L2.667,-8.833L6.542,-8.833Z" style="fill-rule:nonzero;"/>
            </g>
        </g>
        <g transform="matrix(4.16667,0,0,4.16667,533.369,2049.01)">
            <g>
                <rect x="0.917" y="-2.208" width="1.688" height="2.208" style="fill-rule:nonzero;"/>
            </g>
        </g>
        <g transform="matrix(4.16667,0,0,4.16667,562.633,2049.01)">
            <g>
                <path d="M4.333,-16.021C5.552,-16.021 6.458,-15.656 7.042,-14.937C7.625,-14.214 7.917,-13.25 7.917,-12.042L7.917,-10.604L6.229,-10.604L6.229,-12.125C6.229,-12.844 6.083,-13.406 5.792,-13.812C5.5,-14.214 5.026,-14.417 4.375,-14.417C3.734,-14.417 3.26,-14.214 2.958,-13.812C2.667,-13.406 2.521,-12.844 2.521,-12.125L2.521,-3.75C2.521,-3.01 2.667,-2.443 2.958,-2.042C3.26,-1.651 3.734,-1.458 4.375,-1.458C5.026,-1.458 5.5,-1.651 5.792,-2.042C6.083,-2.443 6.229,-3.01 6.229,-3.75L6.229,-5.812L7.917,-5.812L7.917,-3.833C7.917,-2.625 7.625,-1.651 7.042,-0.917C6.458,-0.193 5.552,0.167 4.333,0.167C3.125,0.167 2.229,-0.193 1.646,-0.917C1.063,-1.651 0.771,-2.625 0.771,-3.833L0.771,-12.042C0.771,-12.635 0.839,-13.177 0.979,-13.667C1.13,-14.167 1.354,-14.589 1.646,-14.937C1.938,-15.281 2.302,-15.547 2.75,-15.729C3.193,-15.922 3.719,-16.021 4.333,-16.021Z" style="fill-rule:nonzero;"/>
            </g>
        </g>
        <g transform="matrix(4.16667,0,0,4.16667,598.505,2049.01)">
            <g>
                <path d="M2.583,-3.75C2.583,-3.01 2.729,-2.443 3.021,-2.042C3.313,-1.651 3.781,-1.458 4.438,-1.458C5.073,-1.458 5.542,-1.651 5.833,-2.042C6.125,-2.443 6.271,-3.01 6.271,-3.75L6.271,-15.875L7.938,-15.875L7.938,-3.833C7.938,-2.625 7.646,-1.651 7.063,-0.917C6.49,-0.177 5.594,0.188 4.375,0.188C3.167,0.188 2.271,-0.177 1.688,-0.917C1.115,-1.651 0.833,-2.625 0.833,-3.833L0.833,-15.875L2.583,-15.875L2.583,-3.75Z" style="fill-rule:nonzero;"/>
            </g>
        </g>
        <g transform="matrix(4.16667,0,0,4.16667,635.038,2049.01)">
            <g>
                <path d="M4.229,-16.021C5.438,-16.021 6.323,-15.656 6.896,-14.937C7.479,-14.229 7.771,-13.271 7.771,-12.062L7.771,-11.625L6.104,-11.625L6.104,-12.146C6.104,-12.865 5.958,-13.422 5.667,-13.812C5.375,-14.214 4.917,-14.417 4.292,-14.417C3.651,-14.417 3.188,-14.214 2.896,-13.812C2.615,-13.422 2.479,-12.875 2.479,-12.167C2.479,-11.583 2.609,-11.068 2.875,-10.625C3.135,-10.193 3.464,-9.792 3.854,-9.417C4.24,-9.042 4.667,-8.672 5.125,-8.312C5.594,-7.964 6.026,-7.573 6.417,-7.146C6.802,-6.729 7.13,-6.25 7.396,-5.708C7.656,-5.177 7.792,-4.547 7.792,-3.812C7.792,-2.604 7.5,-1.635 6.917,-0.917C6.333,-0.193 5.427,0.167 4.208,0.167C2.984,0.167 2.089,-0.193 1.521,-0.917C0.948,-1.635 0.667,-2.604 0.667,-3.812L0.667,-4.708L2.313,-4.708L2.313,-3.708C2.313,-2.984 2.458,-2.427 2.75,-2.042C3.052,-1.651 3.526,-1.458 4.167,-1.458C4.802,-1.458 5.271,-1.651 5.563,-2.042C5.865,-2.427 6.021,-2.984 6.021,-3.708C6.021,-4.302 5.885,-4.818 5.625,-5.25C5.359,-5.677 5.031,-6.073 4.646,-6.437C4.255,-6.812 3.833,-7.172 3.375,-7.521C2.917,-7.88 2.49,-8.271 2.104,-8.687C1.714,-9.115 1.385,-9.604 1.125,-10.146C0.859,-10.687 0.729,-11.323 0.729,-12.062C0.729,-13.281 1.01,-14.25 1.583,-14.958C2.167,-15.667 3.047,-16.021 4.229,-16.021Z" style="fill-rule:nonzero;"/>
            </g>
        </g>
        <g transform="matrix(4.16667,0,0,4.16667,670.155,2049.01)">
            <g>
                <path d="M3.208,0L3.208,-14.25L0.292,-14.25L0.292,-15.875L7.917,-15.875L7.917,-14.25L4.979,-14.25L4.979,0L3.208,0Z" style="fill-rule:nonzero;"/>
            </g>
        </g>
        <g transform="matrix(4.16667,0,0,4.16667,704.423,2049.01)">
            <g>
                <path d="M0.771,-12.042C0.771,-13.26 1.068,-14.229 1.667,-14.937C2.26,-15.656 3.172,-16.021 4.396,-16.021C5.615,-16.021 6.526,-15.656 7.125,-14.937C7.734,-14.229 8.042,-13.26 8.042,-12.042L8.042,-3.833C8.042,-2.625 7.734,-1.651 7.125,-0.917C6.526,-0.193 5.615,0.167 4.396,0.167C3.172,0.167 2.26,-0.193 1.667,-0.917C1.068,-1.651 0.771,-2.625 0.771,-3.833L0.771,-12.042ZM2.521,-3.75C2.521,-3.01 2.672,-2.443 2.979,-2.042C3.281,-1.651 3.755,-1.458 4.396,-1.458C5.047,-1.458 5.521,-1.651 5.813,-2.042C6.115,-2.443 6.271,-3.01 6.271,-3.75L6.271,-12.125C6.271,-12.844 6.115,-13.406 5.813,-13.812C5.521,-14.214 5.047,-14.417 4.396,-14.417C3.755,-14.417 3.281,-14.214 2.979,-13.812C2.672,-13.406 2.521,-12.844 2.521,-12.125L2.521,-3.75Z" style="fill-rule:nonzero;"/>
            </g>
        </g>
        <g transform="matrix(4.16667,0,0,4.16667,741.145,2049.01)">
            <g>
                <path d="M6.75,-0.021L5.063,-0.021L2.417,-12.646L2.417,0L0.875,0L0.875,-15.875L3.354,-15.875L5.958,-3.187L8.479,-15.875L10.958,-15.875L10.958,0L9.271,0L9.271,-12.771L6.75,-0.021Z" style="fill-rule:nonzero;"/>
            </g>
        </g>
        <g transform="matrix(4.16667,0,0,4.16667,790.516,2049.01)">
            <g>
                <rect x="0.917" y="-2.208" width="1.688" height="2.208" style="fill-rule:nonzero;"/>
            </g>
        </g>
        <g transform="matrix(4.16667,0,0,4.16667,819.781,2049.01)">
            <g>
                <path d="M4.625,-15.875C5.859,-15.875 6.771,-15.521 7.354,-14.812C7.938,-14.104 8.229,-13.135 8.229,-11.917L8.229,-3.917C8.229,-2.693 7.938,-1.734 7.354,-1.042C6.771,-0.344 5.859,0 4.625,0L0.917,0L0.917,-15.875L4.625,-15.875ZM4.604,-1.604C5.24,-1.604 5.714,-1.797 6.021,-2.187C6.323,-2.573 6.479,-3.13 6.479,-3.854L6.479,-12.021C6.479,-12.74 6.323,-13.292 6.021,-13.667C5.714,-14.052 5.234,-14.25 4.583,-14.25L2.667,-14.25L2.667,-1.604L4.604,-1.604Z" style="fill-rule:nonzero;"/>
            </g>
        </g>
        <g transform="matrix(4.16667,0,0,4.16667,857.164,2049.01)">
            <g>
                <path d="M2.583,-3.75C2.583,-3.01 2.729,-2.443 3.021,-2.042C3.313,-1.651 3.781,-1.458 4.438,-1.458C5.073,-1.458 5.542,-1.651 5.833,-2.042C6.125,-2.443 6.271,-3.01 6.271,-3.75L6.271,-15.875L7.938,-15.875L7.938,-3.833C7.938,-2.625 7.646,-1.651 7.063,-0.917C6.49,-0.177 5.594,0.188 4.375,0.188C3.167,0.188 2.271,-0.177 1.688,-0.917C1.115,-1.651 0.833,-2.625 0.833,-3.833L0.833,-15.875L2.583,-15.875L2.583,-3.75Z" style="fill-rule:nonzero;"/>
            </g>
        </g>
        <g transform="matrix(4.16667,0,0,4.16667,893.697,2049.01)">
            <g>
                <path d="M4.438,-15.875C5.698,-15.875 6.604,-15.562 7.146,-14.937C7.698,-14.312 7.979,-13.417 7.979,-12.25L7.979,-10.958C7.979,-10.068 7.818,-9.354 7.5,-8.812C7.177,-8.271 6.677,-7.896 6,-7.687C6.734,-7.479 7.25,-7.089 7.542,-6.521C7.844,-5.948 8,-5.234 8,-4.375L8,-1.896C8,-1.547 8.01,-1.214 8.042,-0.896C8.068,-0.573 8.156,-0.276 8.313,0L6.521,0C6.422,-0.219 6.344,-0.464 6.292,-0.729C6.25,-0.99 6.229,-1.385 6.229,-1.917L6.229,-4.417C6.229,-5.302 6.026,-5.917 5.625,-6.25C5.234,-6.594 4.667,-6.771 3.917,-6.771L2.667,-6.771L2.667,0L0.917,0L0.917,-15.875L4.438,-15.875ZM3.979,-8.396C4.698,-8.396 5.255,-8.542 5.646,-8.833C6.031,-9.125 6.229,-9.698 6.229,-10.562L6.229,-12.083C6.229,-12.802 6.089,-13.344 5.813,-13.708C5.531,-14.068 5.063,-14.25 4.396,-14.25L2.667,-14.25L2.667,-8.396L3.979,-8.396Z" style="fill-rule:nonzero;"/>
            </g>
        </g>
        <g transform="matrix(4.16667,0,0,4.16667,930.891,2049.01)">
            <g>
                <path d="M2.688,-3.187L2.083,0L0.458,0L3.5,-15.875L6.042,-15.875L9.083,0L7.313,0L6.708,-3.187L2.688,-3.187ZM2.917,-4.708L6.458,-4.708L4.667,-13.875L2.917,-4.708Z" style="fill-rule:nonzero;"/>
            </g>
        </g>
        <g transform="matrix(4.16667,0,0,4.16667,970.728,2049.01)">
            <g>
                <path d="M4.458,-15.875C5.708,-15.875 6.594,-15.583 7.125,-15C7.651,-14.417 7.917,-13.531 7.917,-12.354L7.917,-11.604C7.917,-10.755 7.776,-10.068 7.5,-9.542C7.234,-9.026 6.75,-8.667 6.042,-8.458C6.818,-8.25 7.365,-7.844 7.688,-7.25C8.021,-6.667 8.188,-5.937 8.188,-5.062L8.188,-3.708C8.188,-2.51 7.885,-1.594 7.292,-0.958C6.708,-0.318 5.797,0 4.563,0L0.917,0L0.917,-15.875L4.458,-15.875ZM4.042,-9.125C4.75,-9.125 5.276,-9.271 5.625,-9.562C5.984,-9.854 6.167,-10.417 6.167,-11.25L6.167,-12.167C6.167,-12.875 6.031,-13.396 5.771,-13.729C5.505,-14.073 5.052,-14.25 4.417,-14.25L2.667,-14.25L2.667,-9.125L4.042,-9.125ZM4.563,-1.604C5.813,-1.604 6.438,-2.323 6.438,-3.771L6.438,-5.167C6.438,-6.052 6.255,-6.667 5.896,-7C5.547,-7.344 4.984,-7.521 4.208,-7.521L2.667,-7.521L2.667,-1.604L4.563,-1.604Z" style="fill-rule:nonzero;"/>
            </g>
        </g>
        <g transform="matrix(4.16667,0,0,4.16667,1007.73,2049.01)">
            <g>
                <path d="M0.917,0L0.917,-15.875L2.667,-15.875L2.667,-1.604L7.208,-1.604L7.208,0L0.917,0Z" style="fill-rule:nonzero;"/>
            </g>
        </g>
        <g transform="matrix(4.16667,0,0,4.16667,1039.55,2049.01)">
            <g>
                <path d="M6.542,-8.833L6.542,-7.25L2.667,-7.25L2.667,-1.604L7.438,-1.604L7.438,0L0.917,0L0.917,-15.875L7.438,-15.875L7.438,-14.25L2.667,-14.25L2.667,-8.833L6.542,-8.833Z" style="fill-rule:nonzero;"/>
            </g>
        </g>
        <g transform="matrix(4.16667,0,0,4.16667,1073.53,2049.01)">
            <g>
                <rect x="0.917" y="-2.208" width="1.688" height="2.208" style="fill-rule:nonzero;"/>
            </g>
        </g>
        <g transform="matrix(4.16667,0,0,4.16667,1102.79,2049.01)">
            <g>
                <path d="M4.438,-15.875C5.698,-15.875 6.604,-15.562 7.146,-14.937C7.698,-14.312 7.979,-13.417 7.979,-12.25L7.979,-10.958C7.979,-10.068 7.818,-9.354 7.5,-8.812C7.177,-8.271 6.677,-7.896 6,-7.687C6.734,-7.479 7.25,-7.089 7.542,-6.521C7.844,-5.948 8,-5.234 8,-4.375L8,-1.896C8,-1.547 8.01,-1.214 8.042,-0.896C8.068,-0.573 8.156,-0.276 8.313,0L6.521,0C6.422,-0.219 6.344,-0.464 6.292,-0.729C6.25,-0.99 6.229,-1.385 6.229,-1.917L6.229,-4.417C6.229,-5.302 6.026,-5.917 5.625,-6.25C5.234,-6.594 4.667,-6.771 3.917,-6.771L2.667,-6.771L2.667,0L0.917,0L0.917,-15.875L4.438,-15.875ZM3.979,-8.396C4.698,-8.396 5.255,-8.542 5.646,-8.833C6.031,-9.125 6.229,-9.698 6.229,-10.562L6.229,-12.083C6.229,-12.802 6.089,-13.344 5.813,-13.708C5.531,-14.068 5.063,-14.25 4.396,-14.25L2.667,-14.25L2.667,-8.396L3.979,-8.396Z" style="fill-rule:nonzero;"/>
            </g>
        </g>
        <g transform="matrix(4.16667,0,0,4.16667,1139.99,2049.01)">
            <g>
                <path d="M6.542,-8.833L6.542,-7.25L2.667,-7.25L2.667,-1.604L7.438,-1.604L7.438,0L0.917,0L0.917,-15.875L7.438,-15.875L7.438,-14.25L2.667,-14.25L2.667,-8.833L6.542,-8.833Z" style="fill-rule:nonzero;"/>
            </g>
        </g>
        <g transform="matrix(4.16667,0,0,4.16667,1173.97,2049.01)">
            <g>
                <path d="M2.583,-3.75C2.583,-3.01 2.729,-2.443 3.021,-2.042C3.313,-1.651 3.781,-1.458 4.438,-1.458C5.073,-1.458 5.542,-1.651 5.833,-2.042C6.125,-2.443 6.271,-3.01 6.271,-3.75L6.271,-15.875L7.938,-15.875L7.938,-3.833C7.938,-2.625 7.646,-1.651 7.063,-0.917C6.49,-0.177 5.594,0.188 4.375,0.188C3.167,0.188 2.271,-0.177 1.688,-0.917C1.115,-1.651 0.833,-2.625 0.833,-3.833L0.833,-15.875L2.583,-15.875L2.583,-3.75Z" style="fill-rule:nonzero;"/>
            </g>
        </g>
        <g transform="matrix(4.16667,0,0,4.16667,1210.51,2049.01)">
            <g>
                <path d="M4.229,-16.021C5.438,-16.021 6.323,-15.656 6.896,-14.937C7.479,-14.229 7.771,-13.271 7.771,-12.062L7.771,-11.625L6.104,-11.625L6.104,-12.146C6.104,-12.865 5.958,-13.422 5.667,-13.812C5.375,-14.214 4.917,-14.417 4.292,-14.417C3.651,-14.417 3.188,-14.214 2.896,-13.812C2.615,-13.422 2.479,-12.875 2.479,-12.167C2.479,-11.583 2.609,-11.068 2.875,-10.625C3.135,-10.193 3.464,-9.792 3.854,-9.417C4.24,-9.042 4.667,-8.672 5.125,-8.312C5.594,-7.964 6.026,-7.573 6.417,-7.146C6.802,-6.729 7.13,-6.25 7.396,-5.708C7.656,-5.177 7.792,-4.547 7.792,-3.812C7.792,-2.604 7.5,-1.635 6.917,-0.917C6.333,-0.193 5.427,0.167 4.208,0.167C2.984,0.167 2.089,-0.193 1.521,-0.917C0.948,-1.635 0.667,-2.604 0.667,-3.812L0.667,-4.708L2.313,-4.708L2.313,-3.708C2.313,-2.984 2.458,-2.427 2.75,-2.042C3.052,-1.651 3.526,-1.458 4.167,-1.458C4.802,-1.458 5.271,-1.651 5.563,-2.042C5.865,-2.427 6.021,-2.984 6.021,-3.708C6.021,-4.302 5.885,-4.818 5.625,-5.25C5.359,-5.677 5.031,-6.073 4.646,-6.437C4.255,-6.812 3.833,-7.172 3.375,-7.521C2.917,-7.88 2.49,-8.271 2.104,-8.687C1.714,-9.115 1.385,-9.604 1.125,-10.146C0.859,-10.687 0.729,-11.323 0.729,-12.062C0.729,-13.281 1.01,-14.25 1.583,-14.958C2.167,-15.667 3.047,-16.021 4.229,-16.021Z" style="fill-rule:nonzero;"/>
            </g>
        </g>
        <g transform="matrix(4.16667,0,0,4.16667,1245.62,2049.01)">
            <g>
                <path d="M2.688,-3.187L2.083,0L0.458,0L3.5,-15.875L6.042,-15.875L9.083,0L7.313,0L6.708,-3.187L2.688,-3.187ZM2.917,-4.708L6.458,-4.708L4.667,-13.875L2.917,-4.708Z" style="fill-rule:nonzero;"/>
            </g>
        </g>
        <g transform="matrix(4.16667,0,0,4.16667,1285.46,2049.01)">
            <g>
                <path d="M4.458,-15.875C5.708,-15.875 6.594,-15.583 7.125,-15C7.651,-14.417 7.917,-13.531 7.917,-12.354L7.917,-11.604C7.917,-10.755 7.776,-10.068 7.5,-9.542C7.234,-9.026 6.75,-8.667 6.042,-8.458C6.818,-8.25 7.365,-7.844 7.688,-7.25C8.021,-6.667 8.188,-5.937 8.188,-5.062L8.188,-3.708C8.188,-2.51 7.885,-1.594 7.292,-0.958C6.708,-0.318 5.797,0 4.563,0L0.917,0L0.917,-15.875L4.458,-15.875ZM4.042,-9.125C4.75,-9.125 5.276,-9.271 5.625,-9.562C5.984,-9.854 6.167,-10.417 6.167,-11.25L6.167,-12.167C6.167,-12.875 6.031,-13.396 5.771,-13.729C5.505,-14.073 5.052,-14.25 4.417,-14.25L2.667,-14.25L2.667,-9.125L4.042,-9.125ZM4.563,-1.604C5.813,-1.604 6.438,-2.323 6.438,-3.771L6.438,-5.167C6.438,-6.052 6.255,-6.667 5.896,-7C5.547,-7.344 4.984,-7.521 4.208,-7.521L2.667,-7.521L2.667,-1.604L4.563,-1.604Z" style="fill-rule:nonzero;"/>
            </g>
        </g>
        <g transform="matrix(4.16667,0,0,4.16667,1322.47,2049.01)">
            <g>
                <path d="M0.917,0L0.917,-15.875L2.667,-15.875L2.667,-1.604L7.208,-1.604L7.208,0L0.917,0Z" style="fill-rule:nonzero;"/>
            </g>
        </g>
        <g transform="matrix(4.16667,0,0,4.16667,1354.28,2049.01)">
            <g>
                <path d="M6.542,-8.833L6.542,-7.25L2.667,-7.25L2.667,-1.604L7.438,-1.604L7.438,0L0.917,0L0.917,-15.875L7.438,-15.875L7.438,-14.25L2.667,-14.25L2.667,-8.833L6.542,-8.833Z" style="fill-rule:nonzero;"/>
            </g>
        </g>
        <g transform="matrix(4.16667,0,0,4.16667,1388.26,2049.01)">
            <g>
                <rect x="0.917" y="-2.208" width="1.688" height="2.208" style="fill-rule:nonzero;"/>
            </g>
        </g>
        <g transform="matrix(4.31585,0,0,4.31585,29.6586,1609.47)">
            <path d="M14.416,18.411C18.534,18.411 21.521,19.547 23.366,21.82C25.212,24.083 26.137,27.2 26.137,31.173L26.137,37.443C26.137,41.621 25.151,44.774 23.185,46.901C21.214,49.013 18.142,50.069 13.963,50.069L8.804,50.069L8.804,70.665L2.992,70.665L2.992,18.411L14.416,18.411ZM13.963,44.84C16.151,44.84 17.765,44.307 18.811,43.236C19.856,42.17 20.374,40.364 20.374,37.825L20.374,30.881C20.374,28.488 19.917,26.692 18.992,25.501C18.081,24.314 16.553,23.716 14.416,23.716L8.804,23.716L8.804,44.84L13.963,44.84ZM42.554,18.411C46.682,18.411 49.654,19.432 51.464,21.473C53.29,23.515 54.2,26.476 54.2,30.353L54.2,34.617C54.2,37.493 53.677,39.836 52.631,41.632C51.585,43.417 49.941,44.659 47.693,45.352C50.087,46.056 51.781,47.344 52.777,49.214C53.772,51.075 54.27,53.418 54.27,56.249L54.27,64.395C54.27,65.541 54.32,66.647 54.416,67.713C54.516,68.784 54.813,69.77 55.311,70.665L49.423,70.665C49.071,69.926 48.814,69.116 48.659,68.241C48.513,67.366 48.442,66.064 48.442,64.324L48.442,56.103C48.442,53.176 47.779,51.155 46.451,50.034C45.139,48.902 43.268,48.339 40.84,48.339L36.721,48.339L36.721,70.665L30.909,70.665L30.909,18.411L42.554,18.411ZM41.061,43.034C43.389,43.034 45.204,42.557 46.491,41.596C47.789,40.626 48.442,38.715 48.442,35.874L48.442,30.881C48.442,28.488 47.98,26.692 47.054,25.501C46.144,24.314 44.596,23.716 42.408,23.716L36.721,23.716L36.721,43.034L41.061,43.034ZM78.909,41.561L78.909,46.77L66.132,46.77L66.132,65.365L81.805,65.365L81.805,70.665L60.319,70.665L60.319,18.411L81.805,18.411L81.805,23.716L66.132,23.716L66.132,41.561L78.909,41.561ZM98.162,17.883C102.144,17.883 105.081,19.07 106.967,21.438C108.862,23.796 109.808,26.969 109.808,30.951L109.808,32.374L104.287,32.374L104.287,30.66C104.287,28.266 103.814,26.426 102.864,25.139C101.918,23.836 100.395,23.188 98.308,23.188C96.216,23.188 94.698,23.836 93.752,25.139C92.802,26.426 92.329,28.236 92.329,30.569C92.329,32.515 92.767,34.21 93.642,35.653C94.517,37.101 95.598,38.434 96.885,39.645C98.187,40.862 99.595,42.059 101.114,43.236C102.632,44.402 104.035,45.684 105.322,47.082C106.625,48.47 107.706,50.049 108.571,51.819C109.446,53.584 109.883,55.686 109.883,58.129C109.883,62.112 108.923,65.29 107.002,67.658C105.091,70.016 102.124,71.193 98.087,71.193C94.054,71.193 91.087,70.016 89.197,67.658C87.311,65.29 86.371,62.112 86.371,58.129L86.371,55.138L91.816,55.138L91.816,58.421C91.816,60.814 92.319,62.66 93.315,63.957C94.31,65.249 95.854,65.893 97.941,65.893C100.033,65.893 101.576,65.249 102.572,63.957C103.567,62.66 104.065,60.814 104.065,58.421C104.065,56.485 103.628,54.811 102.753,53.388C101.878,51.965 100.792,50.647 99.49,49.435C98.202,48.209 96.814,47.012 95.316,45.845C93.823,44.679 92.425,43.396 91.127,41.999C89.84,40.601 88.759,39.022 87.884,37.257C87.019,35.497 86.587,33.395 86.587,30.951C86.587,26.919 87.527,23.736 89.413,21.403C91.309,19.054 94.225,17.883 98.162,17.883ZM125.928,17.883C129.916,17.883 132.847,19.07 134.733,21.438C136.629,23.796 137.574,26.969 137.574,30.951L137.574,32.374L132.053,32.374L132.053,30.66C132.053,28.266 131.58,26.426 130.63,25.139C129.684,23.836 128.166,23.188 126.074,23.188C123.987,23.188 122.469,23.836 121.518,25.139C120.573,26.426 120.095,28.236 120.095,30.569C120.095,32.515 120.533,34.21 121.408,35.653C122.283,37.101 123.364,38.434 124.656,39.645C125.953,40.862 127.361,42.059 128.88,43.236C130.403,44.402 131.806,45.684 133.094,47.082C134.391,48.47 135.472,50.049 136.337,51.819C137.212,53.584 137.649,55.686 137.649,58.129C137.649,62.112 136.689,65.29 134.768,67.658C132.862,70.016 129.891,71.193 125.858,71.193C121.82,71.193 118.859,70.016 116.963,67.658C115.077,65.29 114.137,62.112 114.137,58.129L114.137,55.138L119.588,55.138L119.588,58.421C119.588,60.814 120.085,62.66 121.081,63.957C122.077,65.249 123.62,65.893 125.712,65.893C127.799,65.893 129.343,65.249 130.338,63.957C131.339,62.66 131.837,60.814 131.837,58.421C131.837,56.485 131.399,54.811 130.524,53.388C129.649,51.965 128.558,50.647 127.261,49.435C125.974,48.209 124.581,47.012 123.087,45.845C121.594,44.679 120.196,43.396 118.894,41.999C117.606,40.601 116.525,39.022 115.65,37.257C114.786,35.497 114.358,33.395 114.358,30.951C114.358,26.919 115.298,23.736 117.179,21.403C119.075,19.054 121.991,17.883 125.928,17.883ZM153.84,31.027C153.84,26.989 154.826,23.796 156.792,21.438C158.763,19.07 161.76,17.883 165.798,17.883C169.82,17.883 172.827,19.07 174.818,21.438C176.81,23.796 177.805,26.989 177.805,31.027L177.805,58.054C177.805,62.026 176.81,65.209 174.818,67.603C172.827,69.996 169.82,71.193 165.798,71.193C161.76,71.193 158.763,69.996 156.792,67.603C154.826,65.209 153.84,62.026 153.84,58.054L153.84,31.027ZM159.598,58.346C159.598,60.739 160.111,62.6 161.131,63.922C162.152,65.234 163.706,65.893 165.798,65.893C167.935,65.893 169.503,65.234 170.499,63.922C171.495,62.6 171.993,60.739 171.993,58.346L171.993,30.735C171.993,28.342 171.495,26.486 170.499,25.174C169.503,23.851 167.935,23.188 165.798,23.188C163.706,23.188 162.152,23.851 161.131,25.174C160.111,26.486 159.598,28.342 159.598,30.735L159.598,58.346ZM188.47,70.665L183.261,70.665L183.261,18.411L190.642,18.411L202.746,56.178L202.746,18.411L207.884,18.411L207.884,70.665L201.851,70.665L188.47,28.417L188.47,70.665Z" style="fill:none;fill-rule:nonzero;stroke:black;stroke-width:5.6px;"/>
        </g>
        <g transform="matrix(4.16667,0,0,4.16667,29.6586,1914.46)">
            <g>
                <path d="M14.917,-54.125C19.208,-54.125 22.302,-52.948 24.208,-50.604C26.109,-48.271 27.063,-45.042 27.063,-40.917L27.063,-34.417C27.063,-30.083 26.042,-26.818 24,-24.625C21.969,-22.443 18.792,-21.354 14.458,-21.354L9.125,-21.354L9.125,0L3.083,0L3.083,-54.125L14.917,-54.125ZM14.458,-26.75C16.719,-26.75 18.396,-27.302 19.479,-28.417C20.563,-29.526 21.104,-31.396 21.104,-34.021L21.104,-41.208C21.104,-43.693 20.625,-45.552 19.667,-46.792C18.719,-48.026 17.135,-48.646 14.917,-48.646L9.125,-48.646L9.125,-26.75L14.458,-26.75Z" style="fill:rgb(218,171,181);fill-rule:nonzero;"/>
            </g>
        </g>
        <g transform="matrix(4.16667,0,0,4.16667,150.146,1914.46)">
            <g>
                <path d="M15.167,-54.125C19.443,-54.125 22.521,-53.068 24.396,-50.958C26.281,-48.844 27.229,-45.776 27.229,-41.75L27.229,-37.354C27.229,-34.365 26.688,-31.943 25.604,-30.083C24.521,-28.219 22.818,-26.927 20.5,-26.208C22.969,-25.484 24.719,-24.156 25.75,-22.229C26.776,-20.297 27.292,-17.859 27.292,-14.917L27.292,-6.5C27.292,-5.302 27.339,-4.151 27.438,-3.042C27.547,-1.943 27.859,-0.927 28.375,0L22.271,0C21.906,-0.776 21.651,-1.615 21.5,-2.521C21.344,-3.422 21.271,-4.776 21.271,-6.583L21.271,-15.083C21.271,-18.125 20.583,-20.219 19.208,-21.375C17.844,-22.542 15.901,-23.125 13.375,-23.125L9.125,-23.125L9.125,0L3.083,0L3.083,-54.125L15.167,-54.125ZM13.604,-28.604C16.031,-28.604 17.917,-29.104 19.25,-30.104C20.594,-31.115 21.271,-33.094 21.271,-36.042L21.271,-41.208C21.271,-43.693 20.792,-45.552 19.833,-46.792C18.875,-48.026 17.26,-48.646 15,-48.646L9.125,-48.646L9.125,-28.604L13.604,-28.604Z" style="fill:rgb(218,171,181);fill-rule:nonzero;"/>
            </g>
        </g>
        <g transform="matrix(4.16667,0,0,4.16667,277.077,1914.46)">
            <g>
                <path d="M22.354,-30.167L22.354,-24.75L9.125,-24.75L9.125,-5.5L25.375,-5.5L25.375,0L3.083,0L3.083,-54.125L25.375,-54.125L25.375,-48.646L9.125,-48.646L9.125,-30.167L22.354,-30.167Z" style="fill:rgb(218,171,181);fill-rule:nonzero;"/>
            </g>
        </g>
        <g transform="matrix(4.16667,0,0,4.16667,393.055,1914.46)">
            <g>
                <path d="M14.458,-54.667C18.583,-54.667 21.625,-53.443 23.583,-51C25.542,-48.552 26.521,-45.271 26.521,-41.146L26.521,-39.667L20.813,-39.667L20.813,-41.458C20.813,-43.927 20.318,-45.833 19.333,-47.167C18.344,-48.51 16.776,-49.187 14.625,-49.187C12.458,-49.187 10.88,-48.51 9.896,-47.167C8.922,-45.833 8.438,-43.948 8.438,-41.521C8.438,-39.521 8.885,-37.771 9.792,-36.271C10.693,-34.771 11.813,-33.385 13.146,-32.125C14.49,-30.859 15.948,-29.625 17.521,-28.417C19.089,-27.208 20.542,-25.88 21.875,-24.437C23.219,-22.99 24.344,-21.354 25.25,-19.521C26.151,-17.698 26.604,-15.526 26.604,-13C26.604,-8.875 25.609,-5.583 23.625,-3.125C21.635,-0.677 18.552,0.542 14.375,0.542C10.208,0.542 7.146,-0.677 5.188,-3.125C3.229,-5.583 2.25,-8.875 2.25,-13L2.25,-16.083L7.896,-16.083L7.896,-12.687C7.896,-10.214 8.406,-8.302 9.438,-6.958C10.464,-5.625 12.063,-4.958 14.229,-4.958C16.396,-4.958 17.99,-5.625 19.021,-6.958C20.047,-8.302 20.563,-10.214 20.563,-12.687C20.563,-14.698 20.109,-16.437 19.208,-17.896C18.302,-19.365 17.177,-20.734 15.833,-22C14.5,-23.26 13.063,-24.5 11.521,-25.708C9.979,-26.917 8.531,-28.24 7.188,-29.687C5.854,-31.13 4.734,-32.771 3.833,-34.604C2.927,-36.437 2.479,-38.615 2.479,-41.146C2.479,-45.312 3.458,-48.604 5.417,-51.021C7.375,-53.448 10.385,-54.667 14.458,-54.667Z" style="fill:rgb(218,171,181);fill-rule:nonzero;"/>
            </g>
        </g>
        <g transform="matrix(4.16667,0,0,4.16667,512.899,1914.46)">
            <g>
                <path d="M14.458,-54.667C18.583,-54.667 21.625,-53.443 23.583,-51C25.542,-48.552 26.521,-45.271 26.521,-41.146L26.521,-39.667L20.813,-39.667L20.813,-41.458C20.813,-43.927 20.318,-45.833 19.333,-47.167C18.344,-48.51 16.776,-49.187 14.625,-49.187C12.458,-49.187 10.88,-48.51 9.896,-47.167C8.922,-45.833 8.438,-43.948 8.438,-41.521C8.438,-39.521 8.885,-37.771 9.792,-36.271C10.693,-34.771 11.813,-33.385 13.146,-32.125C14.49,-30.859 15.948,-29.625 17.521,-28.417C19.089,-27.208 20.542,-25.88 21.875,-24.437C23.219,-22.99 24.344,-21.354 25.25,-19.521C26.151,-17.698 26.604,-15.526 26.604,-13C26.604,-8.875 25.609,-5.583 23.625,-3.125C21.635,-0.677 18.552,0.542 14.375,0.542C10.208,0.542 7.146,-0.677 5.188,-3.125C3.229,-5.583 2.25,-8.875 2.25,-13L2.25,-16.083L7.896,-16.083L7.896,-12.687C7.896,-10.214 8.406,-8.302 9.438,-6.958C10.464,-5.625 12.063,-4.958 14.229,-4.958C16.396,-4.958 17.99,-5.625 19.021,-6.958C20.047,-8.302 20.563,-10.214 20.563,-12.687C20.563,-14.698 20.109,-16.437 19.208,-17.896C18.302,-19.365 17.177,-20.734 15.833,-22C14.5,-23.26 13.063,-24.5 11.521,-25.708C9.979,-26.917 8.531,-28.24 7.188,-29.687C5.854,-31.13 4.734,-32.771 3.833,-34.604C2.927,-36.437 2.479,-38.615 2.479,-41.146C2.479,-45.312 3.458,-48.604 5.417,-51.021C7.375,-53.448 10.385,-54.667 14.458,-54.667Z" style="fill:rgb(218,171,181);fill-rule:nonzero;"/>
            </g>
        </g>
        <g transform="matrix(4.16667,0,0,4.16667,682.677,1914.46)">
            <g>
                <path d="M2.625,-41.062C2.625,-45.24 3.635,-48.552 5.667,-51C7.708,-53.443 10.818,-54.667 15,-54.667C19.177,-54.667 22.297,-53.443 24.354,-51C26.422,-48.552 27.458,-45.24 27.458,-41.062L27.458,-13.062C27.458,-8.937 26.422,-5.635 24.354,-3.167C22.297,-0.693 19.177,0.542 15,0.542C10.818,0.542 7.708,-0.693 5.667,-3.167C3.635,-5.635 2.625,-8.937 2.625,-13.062L2.625,-41.062ZM8.583,-12.75C8.583,-10.276 9.109,-8.359 10.167,-7C11.219,-5.635 12.833,-4.958 15,-4.958C17.219,-4.958 18.844,-5.635 19.875,-7C20.901,-8.359 21.417,-10.276 21.417,-12.75L21.417,-41.375C21.417,-43.844 20.901,-45.76 19.875,-47.125C18.844,-48.5 17.219,-49.187 15,-49.187C12.833,-49.187 11.219,-48.5 10.167,-47.125C9.109,-45.76 8.583,-43.844 8.583,-41.375L8.583,-12.75Z" style="fill:rgb(218,171,181);fill-rule:nonzero;"/>
            </g>
        </g>
        <g transform="matrix(4.16667,0,0,4.16667,807.997,1914.46)">
            <g>
                <path d="M8.438,0L3.021,0L3.021,-54.125L10.667,-54.125L23.208,-15L23.208,-54.125L28.542,-54.125L28.542,0L22.271,0L8.438,-43.771L8.438,0Z" style="fill:rgb(218,171,181);fill-rule:nonzero;"/>
            </g>
        </g>
    </g>
    <g id="Artboard1" transform="matrix(6.13531,0,0,0.314752,3126.64,24.9399)">
        <rect x="-509.614" y="-79.237" width="256.637" height="1227.23" style="fill:none;"/>
    </g>
</svg>
